<svg width="204" height="38" viewBox="0 0 204 38" fill="none" xmlns="http://www.w3.org/2000/svg">
<path d="M3.24 37.984C3.176 37.952 3.048 37.904 2.856 37.84C2.664 37.776 2.456 37.744 2.232 37.744C1.848 37.648 1.528 37.44 1.272 37.12C1.048 36.8 0.936 36.432 0.936 36.016C0.936 35.792 0.952 35.616 0.984 35.488C1.08 35.392 1.16 35.136 1.224 34.72C1.32 34.336 1.368 33.984 1.368 33.664C1.464 33.472 1.544 33.28 1.608 33.088C1.672 32.864 1.752 32.56 1.848 32.176C2.104 30.768 2.696 28.4 3.624 25.072C4.552 21.744 5.128 19.968 5.352 19.744V19.216C5.352 19.12 5.384 18.928 5.448 18.64C5.512 18.352 5.656 18.048 5.88 17.728C6.008 17.344 6.104 16.976 6.168 16.624C6.264 16.24 6.328 15.952 6.36 15.76C6.488 15.6 6.696 15.12 6.984 14.32C7.304 13.52 7.512 12.992 7.608 12.736C7.832 12.128 8.104 11.424 8.424 10.624C8.776 9.792 9.016 9.248 9.144 8.992V8.752C9.208 8.688 9.368 8.368 9.624 7.792C9.912 7.184 10.152 6.672 10.344 6.256C10.568 5.744 11.16 4.416 12.12 2.272C12.216 2.048 12.36 1.776 12.552 1.456C12.776 1.104 12.888 0.863999 12.888 0.735999C13.016 0.511998 13.24 0.399998 13.56 0.399998C13.848 0.399998 14.136 0.511998 14.424 0.735999C14.744 0.927999 14.984 1.184 15.144 1.504L15.624 2.272L13.896 5.728C13.416 6.56 13 7.36 12.648 8.128C12.296 8.896 12.12 9.344 12.12 9.472C11.992 9.792 11.736 10.448 11.352 11.44C11 12.432 10.712 13.28 10.488 13.984C10.328 14.464 10.136 14.976 9.912 15.52C9.688 16.032 9.528 16.4 9.432 16.624C9.176 17.2 9.048 17.52 9.048 17.584C9.048 17.456 10.968 17.392 14.808 17.392C15.416 17.392 16.488 17.376 18.024 17.344C19.592 17.312 20.568 17.264 20.952 17.2L23.448 16.96L25.08 12.016C25.4 10.896 26.104 8.72 27.192 5.488C27.672 4.112 28.056 3.232 28.344 2.848C28.632 2.432 28.984 2.224 29.4 2.224C29.56 2.224 29.784 2.304 30.072 2.464C30.392 2.592 30.6 2.768 30.696 2.992C31.048 3.344 31.224 3.712 31.224 4.096C31.224 4.544 30.968 5.168 30.456 5.968C30.072 6.64 29.528 7.904 28.824 9.76C28.536 10.624 28.36 11.12 28.296 11.248C28.296 11.92 28.136 12.416 27.816 12.736C27.688 12.864 27.464 13.328 27.144 14.128C26.824 14.896 26.664 15.344 26.664 15.472C26.664 15.728 26.616 16.016 26.52 16.336C26.424 16.624 26.312 16.832 26.184 16.96L25.848 18.112C24.728 22.176 23.848 24.992 23.208 26.56C23.208 26.72 23.128 27.008 22.968 27.424C22.808 27.84 22.728 28.128 22.728 28.288C22.664 28.512 22.52 28.96 22.296 29.632C22.072 30.304 21.96 30.704 21.96 30.832C21.896 31.184 21.768 31.744 21.576 32.512C21.096 34.688 20.856 35.872 20.856 36.064C20.792 36.128 20.696 36.16 20.568 36.16C20.44 36.16 20.232 36.112 19.944 36.016C19.688 35.92 19.496 35.84 19.368 35.776C18.6 35.36 18.216 34.88 18.216 34.336C18.216 33.984 18.36 33.52 18.648 32.944C18.744 32.784 19.048 31.744 19.56 29.824L19.992 28.048C20.184 27.536 20.616 26.016 21.288 23.488C21.832 21.536 22.136 20.528 22.2 20.464V19.984C22.104 19.824 20.936 19.744 18.696 19.744C16.168 19.744 13.848 19.872 11.736 20.128H9.48H8.232C8.072 20.48 7.576 21.968 6.744 24.592C5.944 27.184 5.496 28.816 5.4 29.488C5.176 30.544 4.824 32.016 4.344 33.904C3.864 35.76 3.496 37.12 3.24 37.984ZM37.2949 32.32C36.4949 33.024 35.5349 33.376 34.4149 33.376C33.6149 33.376 32.8469 33.184 32.1109 32.8C31.4069 32.416 30.8149 31.888 30.3349 31.216C29.9189 30.704 29.6149 30.128 29.4229 29.488C29.2309 28.848 29.1349 28.064 29.1349 27.136C29.1349 26.816 29.1669 26.176 29.2309 25.216C29.3269 24.032 29.7109 22.8 30.3829 21.52C31.0869 20.24 31.9509 19.104 32.9749 18.112C33.9989 17.088 35.0069 16.384 35.9989 16C36.5109 15.68 36.9749 15.52 37.3909 15.52C37.6149 15.52 37.8389 15.536 38.0629 15.568C38.2869 15.6 38.5269 15.632 38.7829 15.664C39.4869 15.76 40.0149 15.904 40.3669 16.096C40.7509 16.256 41.0709 16.512 41.3269 16.864C42.1269 17.664 42.5269 18.592 42.5269 19.648C42.3989 20.416 41.9029 21.296 41.0389 22.288C40.1749 23.28 39.1349 24.08 37.9189 24.688C37.3429 24.88 36.6869 24.976 35.9509 24.976C34.9589 24.976 34.1589 24.768 33.5509 24.352C33.2629 24.256 33.0389 24.208 32.8789 24.208C32.5909 24.208 32.3669 24.4 32.2069 24.784C32.0789 25.168 31.9509 25.872 31.8229 26.896C31.7909 27.12 31.7749 27.44 31.7749 27.856C31.7749 29.488 32.3189 30.384 33.4069 30.544C34.1429 30.704 34.6709 30.784 34.9909 30.784C35.3749 30.784 35.8069 30.656 36.2869 30.4L37.1989 29.872C37.3909 29.776 37.5669 29.648 37.7269 29.488C37.8869 29.328 38.0309 29.184 38.1589 29.056C38.2229 28.992 38.3189 28.896 38.4469 28.768C38.5749 28.608 38.6869 28.512 38.7829 28.48C38.9109 28.416 39.0229 28.384 39.1189 28.384C39.2469 28.384 39.3909 28.464 39.5509 28.624C39.7109 28.752 39.8389 28.848 39.9349 28.912C40.2229 28.912 40.2869 29.12 40.1269 29.536C39.9669 29.92 39.6149 30.384 39.0709 30.928C38.5589 31.44 37.9669 31.904 37.2949 32.32ZM37.2469 22.144C37.7909 21.92 38.3349 21.52 38.8789 20.944C39.4549 20.368 39.7429 19.888 39.7429 19.504C39.7429 19.12 39.5989 18.8 39.3109 18.544C39.0229 18.288 38.6229 18.16 38.1109 18.16C37.7269 18.16 37.4389 18.192 37.2469 18.256C36.7989 18.384 36.2709 18.736 35.6629 19.312C35.0549 19.856 34.5269 20.416 34.0789 20.992C33.6309 21.568 33.4549 21.904 33.5509 22C33.7109 22.288 34.3349 22.432 35.4229 22.432C36.1589 22.432 36.7669 22.336 37.2469 22.144ZM48.5363 32.608C48.2163 32.672 47.9283 32.704 47.6723 32.704C47.2563 32.704 46.8723 32.672 46.5203 32.608C46.1683 32.512 45.9922 32.4 45.9922 32.272C45.9922 32.176 45.9763 32.112 45.9443 32.08C45.9123 32.048 45.8483 32.032 45.7523 32.032C45.7203 32 45.6243 31.92 45.4643 31.792C45.3043 31.664 45.1123 31.552 44.8883 31.456C44.6003 31.008 44.4563 30.528 44.4563 30.016C44.4563 29.472 44.6003 28.624 44.8883 27.472C44.9843 26.448 45.4643 25.168 46.3283 23.632C47.1923 22.096 48.2003 20.64 49.3523 19.264C50.5363 17.888 51.5923 16.928 52.5203 16.384C53.0003 15.904 53.6083 15.664 54.3443 15.664C54.9203 15.664 55.4643 15.808 55.9763 16.096C56.4243 16.352 56.8883 16.784 57.3683 17.392C57.8803 18 58.2803 18.624 58.5683 19.264C58.6963 19.744 58.7603 20.208 58.7603 20.656C58.7603 21.136 58.6963 21.888 58.5683 22.912C58.4083 23.488 58.2643 24.192 58.1363 25.024C58.0403 25.856 57.9923 26.576 57.9923 27.184C57.9283 27.632 57.9603 28 58.0883 28.288C58.2163 28.544 58.3923 28.672 58.6163 28.672C58.7763 28.672 58.9523 28.624 59.1443 28.528C59.4643 28.368 59.8163 28.288 60.2003 28.288C60.5523 28.288 60.8403 28.384 61.0643 28.576C61.2883 28.768 61.4003 29.056 61.4003 29.44C61.4003 30.016 61.0003 30.592 60.2003 31.168C59.4323 31.744 58.6963 32.032 57.9923 32.032C57.5123 32.032 57.0643 31.664 56.6483 30.928C56.2643 30.16 55.8803 29.184 55.4963 28L55.2083 26.896L53.1443 28.864L52.0403 29.968C51.5283 30.48 51.2403 30.784 51.1763 30.88C50.8243 31.488 49.9443 32.064 48.5363 32.608ZM48.6803 29.776C49.4483 29.328 50.3923 28.544 51.5123 27.424C52.6323 26.304 53.5603 25.232 54.2963 24.208C55.2883 22.896 55.9123 21.6 56.1683 20.32C56.0403 19.936 55.8323 19.552 55.5443 19.168C55.2563 18.784 55.0003 18.576 54.7763 18.544C54.1363 18.544 53.4643 18.912 52.7603 19.648C52.0563 20.384 51.2243 21.408 50.2643 22.72L48.6803 25.072C48.4883 25.328 48.1523 26.016 47.6723 27.136C47.1923 28.224 46.9523 28.88 46.9523 29.104C46.9523 29.808 47.1603 30.16 47.5763 30.16C47.8963 30.16 48.2643 30.032 48.6803 29.776ZM65.1619 34C65.0659 34.032 64.9059 34.048 64.6819 34.048C64.1699 34.048 63.7699 33.792 63.4819 33.28C63.1939 32.768 63.0499 32.064 63.0499 31.168C63.0499 30.432 63.1459 29.584 63.3379 28.624C63.6899 27.696 63.8659 27.024 63.8659 26.608C63.9619 26 64.2819 24.912 64.8259 23.344C65.4019 21.744 65.7699 20.784 65.9299 20.464C66.0579 20.464 66.1699 20.368 66.2659 20.176C66.3619 19.952 66.4099 19.712 66.4099 19.456C66.4099 19.168 66.4579 18.88 66.5539 18.592C66.6819 18.272 66.8099 18.048 66.9379 17.92C66.9379 17.824 66.9699 17.648 67.0339 17.392C67.1299 17.136 67.1779 16.96 67.1779 16.864C67.1779 16.8 67.2099 16.688 67.2739 16.528C67.3699 16.336 67.4179 16.192 67.4179 16.096C67.9299 15.104 68.8259 12.88 70.1059 9.424C71.3859 5.936 72.0259 4 72.0259 3.616C72.0259 3.104 72.2819 2.848 72.7939 2.848C72.9539 2.688 73.2099 2.608 73.5619 2.608L74.3299 3.376C74.5539 3.6 74.6979 3.84 74.7619 4.096C74.8259 4.32 74.8579 4.672 74.8579 5.152C74.8579 5.632 74.7939 6.048 74.6659 6.4C74.5379 6.752 74.2179 7.472 73.7059 8.56C73.6099 8.784 73.4819 9.056 73.3219 9.376C73.1619 9.664 72.9859 10.032 72.7939 10.48C72.7299 10.64 72.4739 11.216 72.0259 12.208C71.7059 12.848 71.5459 13.216 71.5459 13.312C71.5459 13.408 71.4819 13.616 71.3539 13.936C71.2259 14.224 71.1139 14.528 71.0179 14.848C70.7619 15.36 70.3459 16.272 69.7699 17.584C69.2259 18.864 68.9539 19.568 68.9539 19.696C68.9539 20.048 68.8739 20.304 68.7139 20.464C68.6179 20.464 68.5539 20.544 68.5219 20.704C68.4899 20.832 68.4739 20.928 68.4739 20.992C68.4739 21.312 68.2179 22.16 67.7059 23.536L67.2739 24.928C66.6659 27.008 66.2339 28.528 65.9779 29.488C65.7539 30.448 65.6419 31.264 65.6419 31.936C65.6419 32.736 65.6099 33.248 65.5459 33.472C65.5139 33.696 65.3859 33.872 65.1619 34ZM77.8313 33.904C77.3833 33.776 77.0153 33.632 76.7273 33.472C76.4393 33.312 76.0553 33.008 75.5753 32.56C74.9993 31.792 74.6153 31.088 74.4233 30.448C74.2633 29.776 74.1833 28.72 74.1833 27.28C74.1833 26.512 74.6153 24.4 75.4793 20.944C75.4153 21.168 75.5273 20.704 75.8153 19.552C75.9113 19.2 75.7833 18.976 75.4313 18.88C75.0793 18.784 74.5833 18.736 73.9433 18.736C73.3993 18.736 73.0793 18.704 72.9833 18.64C72.8873 18.608 72.8233 18.56 72.7913 18.496C72.7913 18.432 72.7913 18.384 72.7913 18.352C72.7913 18.192 72.7273 18 72.5993 17.776C72.5673 17.744 72.5513 17.696 72.5513 17.632C72.5513 17.472 72.6313 17.296 72.7913 17.104C72.9833 16.912 73.2073 16.8 73.4633 16.768C73.6233 16.736 73.9913 16.688 74.5673 16.624C75.1433 16.56 75.6873 16.432 76.1993 16.24C76.7113 16.048 77.1113 15.776 77.3993 15.424C77.8153 14.368 78.3433 13.184 78.9833 11.872C79.6233 10.528 80.0553 9.728 80.2793 9.472C80.7913 9.216 81.1433 9.088 81.3353 9.088C81.5273 9.088 81.6873 9.152 81.8153 9.28C81.9433 9.408 82.1193 9.632 82.3433 9.952C82.3753 10.016 82.4553 10.128 82.5833 10.288C82.7113 10.448 82.7753 10.608 82.7753 10.768C82.7753 11.024 82.6473 11.408 82.3913 11.92C82.1673 12.432 81.7033 13.328 80.9993 14.608L80.3753 15.808C80.4713 15.84 80.6953 15.856 81.0473 15.856C81.3993 15.856 81.6873 15.84 81.9113 15.808C82.6153 15.68 83.2713 15.616 83.8793 15.616C84.1993 15.616 84.4233 15.632 84.5513 15.664C85.2873 15.664 85.8153 15.808 86.1353 16.096C86.4873 16.352 86.6953 16.8 86.7593 17.44C86.8233 17.792 86.7593 18 86.5673 18.064C86.3753 18.128 85.8313 18.16 84.9353 18.16C81.2233 18.32 79.3513 18.464 79.3193 18.592C79.1913 18.688 78.9513 19.248 78.5993 20.272C78.2473 21.296 77.9433 22.272 77.6873 23.2C77.2713 25.12 77.0633 26.816 77.0633 28.288C77.0633 29.632 77.2553 30.528 77.6393 30.976C77.7993 31.136 78.1033 31.216 78.5513 31.216C78.9993 31.216 79.4793 31.136 79.9913 30.976C80.5353 30.784 80.9833 30.544 81.3353 30.256C81.9113 29.776 82.3913 29.536 82.7753 29.536C82.9673 29.536 83.1113 29.6 83.2073 29.728C83.3353 29.824 83.3993 29.952 83.3993 30.112C83.3993 30.464 83.2073 30.912 82.8233 31.456C82.3433 32.192 81.7033 32.8 80.9033 33.28C80.1033 33.76 79.3353 34 78.5993 34C78.2473 34 77.9913 33.968 77.8313 33.904ZM104.426 32.944C104.01 33.072 103.658 33.136 103.37 33.136C103.146 33.136 102.922 33.088 102.698 32.992C102.506 32.864 102.25 32.64 101.93 32.32C101.834 32.192 101.658 31.968 101.402 31.648C101.178 31.296 101.002 30.928 100.874 30.544C100.778 30.128 100.73 29.616 100.73 29.008C100.73 28.56 100.746 28.176 100.778 27.856C100.81 27.536 100.842 27.28 100.874 27.088L100.97 25.696C101.194 24.704 101.306 23.824 101.306 23.056C101.306 22.192 101.194 21.76 100.97 21.76C100.49 21.664 99.4339 22.384 97.8019 23.92C96.1699 25.424 94.3939 27.28 92.4739 29.488L91.6099 30.736C91.5459 30.832 91.3859 31.056 91.1299 31.408C90.8739 31.76 90.6979 31.936 90.6019 31.936C90.2499 31.968 89.7699 31.808 89.1619 31.456C88.5539 31.072 88.2339 30.736 88.2019 30.448C88.2019 30.256 88.4419 29.376 88.9219 27.808C89.4339 26.208 89.8339 24.96 90.1219 24.064L92.2339 17.824C92.4899 17.024 92.9539 15.824 93.6259 14.224L94.5379 11.872L95.1139 10.432L97.3219 4.576V4.384C97.3219 3.84 97.4339 3.456 97.6579 3.232L98.3299 3.184C98.3299 3.12 98.4579 3.2 98.7139 3.424C98.9699 3.616 99.2099 3.856 99.4339 4.144C99.6899 4.4 99.8179 4.608 99.8179 4.768C99.9139 4.992 99.9619 5.248 99.9619 5.536C99.9619 6.272 99.5939 7.536 98.8579 9.328C98.5699 9.744 98.1379 10.752 97.5619 12.352C97.2419 13.248 97.0019 13.872 96.8419 14.224C96.4579 14.928 95.7859 16.384 94.8259 18.592C93.8979 20.768 93.2419 22.56 92.8579 23.968C92.6019 24.576 92.4739 25.024 92.4739 25.312C92.4739 25.472 92.5219 25.552 92.6179 25.552C92.8419 25.552 93.1939 25.248 93.6739 24.64C95.6899 22.496 97.3059 20.88 98.5219 19.792C99.7379 18.704 100.714 18.192 101.45 18.256C101.834 18.352 102.298 18.72 102.842 19.36C103.418 19.968 103.818 20.56 104.042 21.136C104.234 21.84 104.33 22.496 104.33 23.104C104.33 23.648 104.282 24.64 104.186 26.08L104.09 27.184C103.834 28.784 103.706 29.712 103.706 29.968C103.706 30.256 103.738 30.464 103.802 30.592C103.898 30.72 104.074 30.896 104.33 31.12C104.842 31.536 105.098 31.888 105.098 32.176C105.098 32.432 104.874 32.688 104.426 32.944ZM110.815 35.104C110.815 35.232 110.799 35.296 110.767 35.296C110.703 35.296 110.575 35.2 110.383 35.008C110.223 34.848 110.063 34.688 109.903 34.528C109.615 34.24 109.439 33.968 109.375 33.712C109.311 33.424 109.295 32.96 109.327 32.32C109.839 29.984 110.623 27.408 111.679 24.592C111.743 24.08 111.839 23.584 111.967 23.104C112.095 22.592 112.191 22.272 112.255 22.144C112.255 22.112 112.335 22.032 112.495 21.904C112.687 21.744 112.815 21.584 112.879 21.424C112.975 21.36 113.023 21.216 113.023 20.992C113.023 20.704 112.991 20.496 112.927 20.368C112.927 19.824 114.031 16.48 116.239 10.336C116.527 9.984 116.767 9.568 116.959 9.088C117.183 8.608 117.327 8.288 117.391 8.128C117.455 8.032 117.519 7.936 117.583 7.84C117.679 7.712 117.727 7.632 117.727 7.6C117.727 7.472 117.615 7.344 117.391 7.216C117.199 7.056 117.071 6.96 117.007 6.928C116.591 6.288 116.383 5.728 116.383 5.248C116.383 4.896 116.495 4.592 116.719 4.336C116.943 4.016 117.423 3.568 118.159 2.992C118.767 2.672 119.215 2.448 119.503 2.32C119.823 2.192 120.143 2.128 120.463 2.128C120.783 2.128 121.039 2.16 121.231 2.224C122.415 2.288 123.231 2.352 123.679 2.416C124.159 2.48 124.479 2.624 124.639 2.848C124.735 2.976 124.895 3.104 125.119 3.232C125.375 3.328 125.615 3.376 125.839 3.376C126.607 3.472 127.519 3.776 128.575 4.288C129.663 4.8 130.287 5.168 130.447 5.392C131.023 5.872 131.503 6.576 131.887 7.504C132.271 8.432 132.511 9.488 132.607 10.672C132.607 11.888 132.527 12.8 132.367 13.408C132.207 13.984 131.759 14.768 131.023 15.76C130.063 17.36 128.767 18.912 127.135 20.416C125.535 21.888 123.679 23.232 121.567 24.448L121.231 25.072C121.231 25.424 121.679 26.08 122.575 27.04C123.503 28 124.527 28.96 125.647 29.92C126.767 30.848 127.503 31.392 127.855 31.552C127.983 31.616 128.191 31.616 128.479 31.552C128.799 31.456 129.023 31.408 129.151 31.408C129.599 31.408 129.823 31.712 129.823 32.32C129.919 32.896 129.551 33.488 128.719 34.096C128.591 34.32 128.463 34.496 128.335 34.624C128.239 34.784 128.143 34.864 128.047 34.864C127.855 34.864 127.423 34.624 126.751 34.144C125.663 33.792 124.591 33.168 123.535 32.272C122.511 31.344 121.407 30.144 120.223 28.672C119.359 27.808 118.735 27.248 118.351 26.992C117.999 26.704 117.647 26.56 117.295 26.56C117.071 26.56 116.895 26.576 116.767 26.608C116.415 26.608 116.111 26.576 115.855 26.512C115.599 26.448 115.359 26.304 115.135 26.08C115.071 25.856 114.895 25.696 114.607 25.6C114.319 25.472 114.175 25.52 114.175 25.744L113.695 27.088C113.183 28.688 112.831 29.664 112.639 30.016C112.671 30.272 112.591 30.784 112.399 31.552C112.239 32.32 112.015 33.232 111.727 34.288C111.695 34.64 111.615 34.912 111.487 35.104C111.391 35.328 111.343 35.328 111.343 35.104C111.151 34.976 111.023 34.912 110.959 34.912C110.927 34.912 110.879 34.976 110.815 35.104ZM119.839 22.48C121.343 21.584 122.847 20.464 124.351 19.12C125.855 17.776 126.927 16.608 127.567 15.616C127.759 15.488 127.999 15.184 128.287 14.704C128.607 14.192 128.815 13.904 128.911 13.84C129.007 13.68 129.135 13.504 129.295 13.312C129.455 13.088 129.535 12.912 129.535 12.784C129.535 12.624 129.487 12.48 129.391 12.352C129.391 12.096 129.407 11.84 129.439 11.584C129.471 11.296 129.567 11.056 129.727 10.864C129.887 10.288 129.967 9.872 129.967 9.616C129.967 9.168 129.823 8.816 129.535 8.56C129.279 8.304 128.831 8.032 128.191 7.744C127.999 7.552 127.631 7.36 127.087 7.168C126.543 6.976 126.207 6.864 126.079 6.832L125.023 6.448C124.671 6.448 124.143 6.384 123.439 6.256C122.895 6.16 122.463 6.112 122.143 6.112C121.791 6.208 121.551 6.336 121.423 6.496C121.295 6.624 121.023 7.104 120.607 7.936C120.543 8.352 120.415 8.768 120.223 9.184C120.031 9.6 119.871 9.84 119.743 9.904C119.711 10.032 119.279 11.264 118.447 13.6C116.591 18.72 115.663 21.408 115.663 21.664C115.663 21.76 115.823 21.92 116.143 22.144C116.463 22.336 116.655 22.336 116.719 22.144C116.783 22.176 116.911 22.224 117.103 22.288C117.327 22.352 117.519 22.432 117.679 22.528L118.399 22.96L119.839 22.48ZM136.785 32.848C135.761 32.432 135.041 31.904 134.625 31.264C134.209 30.592 134.001 29.664 134.001 28.48C134.001 27.904 134.049 27.232 134.145 26.464L134.241 24.736C134.241 24.448 134.209 24.224 134.145 24.064C134.081 23.904 133.937 23.728 133.713 23.536C133.649 23.472 133.489 23.312 133.233 23.056C132.977 22.8 132.865 22.592 132.897 22.432L132.849 22.192C132.849 21.968 132.881 21.76 132.945 21.568C133.041 21.376 133.137 21.28 133.233 21.28C133.329 21.28 133.457 21.264 133.617 21.232C133.777 21.168 133.921 21.152 134.049 21.184C134.497 21.184 134.721 21.28 134.721 21.472C134.849 21.728 135.057 21.76 135.345 21.568C135.665 21.344 135.969 20.928 136.257 20.32C136.705 19.616 137.361 18.88 138.225 18.112C139.121 17.312 139.857 16.752 140.433 16.432C140.657 16.304 141.025 16.192 141.537 16.096C142.049 15.968 142.497 15.904 142.881 15.904C143.457 15.904 143.953 16.032 144.369 16.288C144.817 16.544 145.265 16.912 145.713 17.392C146.321 17.84 146.625 18.544 146.625 19.504C146.625 20.176 146.465 20.864 146.145 21.568C146.017 22.048 145.505 22.656 144.609 23.392C143.745 24.128 142.945 24.64 142.209 24.928C141.313 25.152 140.289 25.264 139.137 25.264C138.369 25.264 137.873 25.2 137.649 25.072C137.265 24.848 136.993 25.712 136.833 27.664C136.801 27.888 136.785 28.192 136.785 28.576C136.785 29.12 136.865 29.552 137.025 29.872C137.057 29.904 137.169 30.032 137.361 30.256C137.553 30.448 137.793 30.624 138.081 30.784C138.369 30.912 138.673 30.976 138.993 30.976C139.281 30.976 139.505 30.944 139.665 30.88C140.017 30.784 140.353 30.608 140.673 30.352C140.993 30.064 141.441 29.632 142.017 29.056C142.529 28.544 142.897 28.192 143.121 28C143.281 27.712 143.601 27.568 144.081 27.568C144.209 27.568 144.433 27.6 144.753 27.664C145.041 27.888 145.185 28.128 145.185 28.384C145.185 28.64 145.025 29.12 144.705 29.824C144.545 30.144 144.145 30.592 143.505 31.168C142.897 31.712 142.353 32.144 141.873 32.464C140.881 33.008 139.889 33.28 138.897 33.28C138.289 33.28 137.585 33.136 136.785 32.848ZM139.617 23.104C139.937 23.04 140.401 22.96 141.009 22.864C141.617 22.768 142.113 22.56 142.497 22.24C142.913 21.888 143.393 21.296 143.937 20.464C144.033 20.208 144.081 19.952 144.081 19.696C144.081 19.216 143.985 18.88 143.793 18.688C143.569 18.464 143.313 18.352 143.025 18.352C142.577 18.352 142.113 18.544 141.633 18.928C141.313 19.024 140.833 19.376 140.193 19.984C139.585 20.592 139.057 21.2 138.609 21.808C138.161 22.384 138.017 22.72 138.177 22.816C138.113 22.912 138.273 22.992 138.657 23.056C139.041 23.088 139.361 23.104 139.617 23.104ZM149.37 32.272C149.274 32.08 149.114 31.888 148.89 31.696C148.698 31.472 148.602 31.328 148.602 31.264C148.602 30.912 148.522 30.64 148.362 30.448C148.298 30.384 148.266 30.24 148.266 30.016C148.266 29.504 148.506 28.64 148.986 27.424C149.498 26.176 150.154 24.832 150.954 23.392C151.146 23.2 151.386 22.864 151.674 22.384C151.994 21.904 152.202 21.632 152.298 21.568C152.298 21.44 152.346 21.328 152.442 21.232C152.538 21.104 152.65 21.04 152.778 21.04V20.752C152.778 20.464 153.306 19.776 154.362 18.688C155.418 17.568 156.282 16.8 156.954 16.384C157.754 15.84 158.57 15.568 159.402 15.568C159.978 15.568 160.474 15.728 160.89 16.048C161.05 16.24 161.786 16.928 163.098 18.112L164.874 19.696L164.01 22.096C163.722 22.96 163.578 23.744 163.578 24.448C163.578 25.664 163.93 26.832 164.634 27.952C164.794 28.304 165.114 28.64 165.594 28.96C166.074 29.28 166.554 29.472 167.034 29.536C167.738 29.664 168.09 30.016 168.09 30.592C168.09 31.232 167.802 31.616 167.226 31.744C167.098 31.776 166.906 31.792 166.65 31.792C164.762 31.792 163.13 30.464 161.754 27.808C161.626 27.616 161.45 27.264 161.226 26.752C161.034 26.24 160.922 25.888 160.89 25.696C160.698 25.952 160.458 26.256 160.17 26.608C159.882 26.96 159.61 27.264 159.354 27.52C155.866 31.008 153.114 32.752 151.098 32.752C150.458 32.752 149.882 32.592 149.37 32.272ZM151.098 29.584C151.098 29.744 151.258 29.792 151.578 29.728C151.93 29.664 152.346 29.504 152.826 29.248C153.338 28.992 153.85 28.656 154.362 28.24C157.114 25.872 159.098 23.808 160.314 22.048L161.37 20.32C161.05 19.648 160.714 19.168 160.362 18.88C160.01 18.56 159.69 18.4 159.402 18.4C158.73 18.4 157.674 19.248 156.234 20.944C154.794 22.608 153.482 24.576 152.298 26.848C152.01 27.392 151.754 27.952 151.53 28.528C151.306 29.072 151.162 29.424 151.098 29.584ZM182.564 34.912C181.764 35.104 181.22 34.752 180.932 33.856C180.484 32.608 180.26 31.296 180.26 29.92C180.26 29.536 180.276 29.264 180.308 29.104L180.404 28.096L178.532 29.584C177.508 30.48 176.484 31.152 175.46 31.6C174.468 32.048 173.556 32.272 172.724 32.272C172.18 32.176 171.652 31.952 171.14 31.6C170.66 31.216 170.308 30.768 170.084 30.256C169.956 30 169.892 29.616 169.892 29.104C169.892 27.92 170.212 26.528 170.852 24.928C171.492 23.296 172.292 21.952 173.252 20.896C174.628 18.816 176.164 17.776 177.859 17.776C178.66 17.776 179.46 18.016 180.26 18.496C181.06 18.816 181.524 18.976 181.652 18.976C181.844 18.976 181.988 18.896 182.084 18.736C182.18 18.576 182.276 18.288 182.372 17.872C182.724 16.4 183.06 15.168 183.38 14.176C184.084 12.064 184.692 10.368 185.204 9.088C185.716 7.808 186.34 6.4 187.076 4.864C187.396 4.192 187.668 3.76 187.892 3.568C188.148 3.344 188.42 3.248 188.708 3.28C189.412 3.28 189.956 3.76 190.34 4.72C190.436 4.944 190.484 5.168 190.484 5.392C190.484 5.616 190.388 5.92 190.196 6.304C189.364 7.744 188.34 10.096 187.124 13.36C185.908 16.624 184.964 19.456 184.292 21.856C184.004 22.912 183.748 24.432 183.524 26.416C183.332 28.4 183.236 30.048 183.236 31.36C183.236 31.936 183.268 32.352 183.332 32.608C183.492 33.152 183.572 33.632 183.572 34.048C183.572 34.368 183.492 34.576 183.332 34.672C183.172 34.8 182.916 34.88 182.564 34.912ZM174.452 29.584C175.188 29.424 176.084 28.944 177.14 28.144C177.332 28.016 177.796 27.68 178.532 27.136C179.268 26.592 179.828 26.016 180.212 25.408C180.596 24.8 180.868 24.112 181.028 23.344C181.06 22.768 180.996 22.304 180.836 21.952C180.708 21.568 180.436 21.2 180.02 20.848C179.7 20.624 179.3 20.512 178.82 20.512C177.956 20.512 177.156 20.864 176.42 21.568C175.556 22.336 174.788 23.328 174.116 24.544C173.444 25.76 172.932 27.168 172.58 28.768C172.484 29.376 172.804 29.68 173.54 29.68C173.924 29.68 174.228 29.648 174.452 29.584ZM192.671 33.616C191.583 33.616 190.639 33.392 189.839 32.944C189.039 32.496 188.511 31.888 188.255 31.12C188.031 30.544 187.919 30.224 187.919 30.16C187.919 29.968 188.031 29.824 188.255 29.728C188.479 29.728 188.735 29.824 189.023 30.016C189.343 30.208 189.599 30.336 189.791 30.4C190.271 30.848 190.927 31.072 191.759 31.072C192.399 31.072 192.975 30.944 193.487 30.688C194.031 30.432 194.335 30.128 194.399 29.776C194.399 29.616 194.239 29.056 193.919 28.096C193.119 26.944 192.495 25.776 192.047 24.592C191.631 23.376 191.423 22.352 191.423 21.52C191.423 20.912 191.599 20.288 191.951 19.648C192.303 19.008 192.783 18.464 193.391 18.016C194.191 17.184 195.151 16.432 196.271 15.76C197.423 15.088 198.463 14.624 199.391 14.368C199.775 14.368 200.239 14.416 200.783 14.512C201.359 14.608 201.759 14.72 201.983 14.848C202.335 14.976 202.671 15.328 202.991 15.904C203.311 16.48 203.471 17.024 203.471 17.536C203.471 18.048 203.199 18.752 202.655 19.648C202.591 19.872 202.463 20.176 202.271 20.56C202.079 20.944 201.983 21.184 201.983 21.28C201.855 21.6 201.647 21.76 201.359 21.76C201.071 21.76 200.783 21.632 200.495 21.376C200.239 21.088 200.031 20.752 199.871 20.368C199.775 19.984 199.727 19.648 199.727 19.36C199.727 18.976 199.855 18.592 200.111 18.208C200.463 17.856 200.639 17.616 200.639 17.488C200.639 17.36 200.463 17.296 200.111 17.296C199.727 17.296 198.991 17.6 197.903 18.208C196.815 18.816 195.951 19.456 195.311 20.128C194.735 20.672 194.383 21.088 194.255 21.376C194.127 21.632 194.063 22.032 194.063 22.576C194.063 23.056 194.159 23.632 194.351 24.304C194.575 24.944 194.799 25.376 195.023 25.6C195.087 25.728 195.215 26 195.407 26.416C195.631 26.832 195.887 27.232 196.175 27.616C196.815 29.056 197.135 30.176 197.135 30.976C197.135 31.904 196.767 32.576 196.031 32.992C195.327 33.408 194.207 33.616 192.671 33.616Z" fill="white"/>
</svg>
